<svg width="32" height="32" viewBox="0 0 32 32" fill="none" xmlns="http://www.w3.org/2000/svg">
<g id="vuesax/linear/call-calling">
<g id="vuesax/linear/call-calling_2">
<g id="call-calling">
<g id="call-calling_2">
<path id="Vector" d="M29.2934 24.4398C29.2934 24.9198 29.1867 25.4132 28.9601 25.8932C28.7334 26.3732 28.4401 26.8265 28.0534 27.2532C27.4001 27.9732 26.6801 28.4932 25.8667 28.8265C25.0667 29.1598 24.2001 29.3332 23.2667 29.3332C21.9067 29.3332 20.4534 29.0132 18.9201 28.3598C17.3867 27.7065 15.8534 26.8265 14.3334 25.7198C12.8001 24.5998 11.3467 23.3598 9.96008 21.9865C8.58675 20.5998 7.34675 19.1465 6.24008 17.6265C5.14675 16.1065 4.26675 14.5865 3.62675 13.0798C2.98675 11.5598 2.66675 10.1065 2.66675 8.71984C2.66675 7.81317 2.82675 6.9465 3.14675 6.1465C3.46675 5.33317 3.97341 4.5865 4.68008 3.91984C5.53341 3.07984 6.46675 2.6665 7.45342 2.6665C7.82675 2.6665 8.20008 2.7465 8.53342 2.9065C8.88008 3.0665 9.18675 3.3065 9.42675 3.65317L12.5201 8.01317C12.7601 8.3465 12.9334 8.65317 13.0534 8.9465C13.1734 9.2265 13.2401 9.5065 13.2401 9.75984C13.2401 10.0798 13.1467 10.3998 12.9601 10.7065C12.7867 11.0132 12.5334 11.3332 12.2134 11.6532L11.2001 12.7065C11.0534 12.8532 10.9867 13.0265 10.9867 13.2398C10.9867 13.3465 11.0001 13.4398 11.0267 13.5465C11.0667 13.6532 11.1067 13.7332 11.1334 13.8132C11.3734 14.2532 11.7867 14.8265 12.3734 15.5198C12.9734 16.2132 13.6134 16.9198 14.3067 17.6265C15.0267 18.3332 15.7201 18.9865 16.4267 19.5865C17.1201 20.1732 17.6934 20.5732 18.1467 20.8132C18.2134 20.8398 18.2934 20.8798 18.3867 20.9198C18.4934 20.9598 18.6001 20.9732 18.7201 20.9732C18.9467 20.9732 19.1201 20.8932 19.2667 20.7465L20.2801 19.7465C20.6134 19.4132 20.9334 19.1598 21.2401 18.9998C21.5467 18.8132 21.8534 18.7198 22.1867 18.7198C22.4401 18.7198 22.7067 18.7732 23.0001 18.8932C23.2934 19.0132 23.6001 19.1865 23.9334 19.4132L28.3467 22.5465C28.6934 22.7865 28.9334 23.0665 29.0801 23.3998C29.2134 23.7332 29.2934 24.0665 29.2934 24.4398Z" stroke="#F9B800" stroke-width="2" stroke-miterlimit="10"/>
<path id="Vector_2" d="M24.6667 11.9997C24.6667 11.1997 24.04 9.97301 23.1067 8.97301C22.2533 8.05301 21.12 7.33301 20 7.33301" stroke="#F9B800" stroke-width="2" stroke-linecap="round" stroke-linejoin="round"/>
<path id="Vector_3" d="M29.3333 11.9998C29.3333 6.83984 25.16 2.6665 20 2.6665" stroke="#F9B800" stroke-width="2" stroke-linecap="round" stroke-linejoin="round"/>
</g>
</g>
</g>
</g>
</svg>
