<svg width="32" height="32" viewBox="0 0 32 32" fill="none" xmlns="http://www.w3.org/2000/svg">
<g id="vuesax/linear/global-search">
<g id="vuesax/linear/global-search_2">
<g id="global-search">
<g id="Group">
<path id="Vector" d="M29.3334 15.9998C29.3334 8.63984 23.3601 2.6665 16.0001 2.6665C8.64008 2.6665 2.66675 8.63984 2.66675 15.9998C2.66675 23.3598 8.64008 29.3332 16.0001 29.3332" stroke="#F9B800" stroke-width="2" stroke-linecap="round" stroke-linejoin="round"/>
<path id="Vector_2" d="M10.6667 4H12C9.40005 11.7867 9.40005 20.2133 12 28H10.6667" stroke="#F9B800" stroke-width="2" stroke-linecap="round" stroke-linejoin="round"/>
<path id="Vector_3" d="M20 4C21.2933 7.89333 21.9467 11.9467 21.9467 16" stroke="#F9B800" stroke-width="2" stroke-linecap="round" stroke-linejoin="round"/>
<path id="Vector_4" d="M4 21.3333V20C7.89333 21.2933 11.9467 21.9467 16 21.9467" stroke="#F9B800" stroke-width="2" stroke-linecap="round" stroke-linejoin="round"/>
<path id="Vector_5" d="M4 11.9998C11.7867 9.3998 20.2133 9.3998 28 11.9998" stroke="#F9B800" stroke-width="2" stroke-linecap="round" stroke-linejoin="round"/>
</g>
<g id="Group_2">
<path id="Vector_6" d="M24.2667 28.5334C26.6231 28.5334 28.5333 26.6231 28.5333 24.2667C28.5333 21.9103 26.6231 20 24.2667 20C21.9102 20 20 21.9103 20 24.2667C20 26.6231 21.9102 28.5334 24.2667 28.5334Z" stroke="#F9B800" stroke-width="2" stroke-linecap="round" stroke-linejoin="round"/>
<path id="Vector_7" d="M29.3333 29.3333L28 28" stroke="#F9B800" stroke-width="2" stroke-linecap="round" stroke-linejoin="round"/>
</g>
</g>
</g>
</g>
</svg>
