<svg width="909" height="837" viewBox="0 0 909 837" fill="none" xmlns="http://www.w3.org/2000/svg">
<path d="M518.208 319.164C518.241 319.164 518.275 319.142 518.319 319.142C531.256 317.456 543.951 314.437 556.006 308.078C582.474 294.113 600.952 267.027 620.484 238.396C629.187 225.639 638.099 212.575 648.021 200.228C652.032 195.203 656.22 190.322 660.628 185.616C687.097 157.351 739.782 156.436 767.332 196.162M518.208 319.164L518.319 320.013L518.335 320.142M518.208 319.164C509.654 320.276 501 320.806 492.37 321.336C463.528 323.104 434.962 324.855 411.306 348.223M518.208 319.164V320.164C518.245 320.164 518.279 320.162 518.31 320.159M518.335 320.142C518.378 320.141 518.415 320.137 518.447 320.133C518.447 320.133 518.447 320.133 518.448 320.133C518.465 320.13 518.48 320.127 518.493 320.124C518.522 320.118 518.545 320.112 518.552 320.11M518.335 320.142L518.337 320.156C518.328 320.157 518.319 320.158 518.31 320.159M518.335 320.142C518.33 320.142 518.324 320.142 518.319 320.142H518.335ZM518.335 320.142H518.384L518.448 320.134C518.459 320.132 518.471 320.131 518.483 320.129M518.552 320.11L518.554 320.109C518.555 320.109 518.554 320.109 518.552 320.11ZM518.552 320.11L518.548 320.111L518.532 320.116C518.522 320.119 518.504 320.124 518.483 320.129M518.483 320.129C531.474 318.434 544.285 315.391 556.473 308.963L556.473 308.963C575.813 298.758 590.88 281.654 605.098 262.194C610.585 254.684 615.933 246.843 621.352 238.899C630.032 226.174 638.894 213.183 648.8 200.855L648.802 200.852C652.799 195.846 656.969 190.984 661.357 186.3L661.357 186.3C687.41 158.479 739.339 157.551 766.51 196.732L767.332 196.162M518.483 320.129C518.479 320.13 518.475 320.131 518.471 320.132C518.435 320.141 518.38 320.153 518.31 320.159M767.332 196.162L766.51 196.732C801.342 246.957 810.811 309.497 802.393 370.56C793.998 431.459 767.822 490.804 731.398 534.836M767.332 196.162C837.351 297.125 805.273 447.401 731.87 535.834M731.398 534.836L439.398 536.089M731.398 534.836C731.299 534.956 731.2 535.076 731.101 535.196L731.87 535.834M731.398 534.836L731.866 534.834L731.87 535.834M731.87 535.834L439.054 537.091M439.054 537.091C367.877 481.21 360.538 398.407 411.306 348.223M439.054 537.091L439.049 536.091L439.398 536.089M439.054 537.091L439.671 536.304C439.58 536.233 439.489 536.161 439.398 536.089M411.306 348.223L412.009 348.935C412.009 348.935 412.009 348.935 412.009 348.935M411.306 348.223L412.009 348.935M518.31 320.159C509.729 321.273 501.051 321.805 492.437 322.333C491.696 322.379 490.956 322.424 490.217 322.47C480.853 323.049 471.575 323.682 462.507 325.107C444.395 327.953 427.178 333.95 412.009 348.935M412.009 348.935C361.833 398.534 368.833 480.492 439.398 536.089" fill="#FFF1C9" stroke="black" stroke-width="2"/>
<path d="M738.372 304.828C730.702 424.965 591.964 469.804 505.316 433.825C429.974 402.529 454.636 331.11 518.22 319.165C518.253 319.165 518.286 319.143 518.33 319.143C531.267 317.457 543.962 314.437 556.017 308.079C594.278 287.891 615.843 240.285 648.032 200.229C695.979 175.324 744.003 216.868 738.372 304.828Z" fill="#F9B800"/>
<path d="M466.258 551.008L466.53 551.434C472.475 548.62 574.269 467.229 576.205 461.639C576.954 459.501 565.813 443.765 551.807 425.13C548.788 421.108 545.636 416.965 542.418 412.777C521.547 385.581 498.769 357.216 498.769 357.216M466.258 551.008C466.257 551.008 466.257 551.008 466.257 551.008C466.252 551.01 466.248 551.012 466.243 551.013L466.403 551.448L466.073 551.118L466.062 551.129L466.307 551.512C461.765 552.922 456.764 540.165 458.206 533.829M466.258 551.008C466.352 550.97 466.547 550.866 466.863 550.669C467.183 550.47 467.595 550.195 468.096 549.849C469.097 549.155 470.437 548.184 472.068 546.971C475.328 544.546 479.742 541.165 484.918 537.135C495.27 529.076 508.665 518.428 521.979 507.656C535.294 496.883 548.524 485.989 558.546 477.437C563.558 473.16 567.763 469.473 570.775 466.681C572.282 465.284 573.484 464.116 574.338 463.214C574.765 462.762 575.099 462.383 575.338 462.078C575.589 461.759 575.701 461.565 575.733 461.475L575.733 461.473C575.733 461.474 575.735 461.469 575.737 461.455C575.739 461.442 575.741 461.423 575.741 461.396C575.741 461.343 575.735 461.269 575.717 461.172C575.681 460.977 575.604 460.721 575.48 460.401C575.232 459.762 574.817 458.923 574.242 457.897C573.095 455.849 571.345 453.114 569.126 449.852C564.691 443.332 558.41 434.747 551.408 425.431L551.407 425.431C548.389 421.41 545.239 417.268 542.022 413.082L542.022 413.082C531.588 399.486 520.678 385.598 512.375 375.108C508.224 369.863 504.725 365.468 502.264 362.385C501.033 360.843 500.062 359.629 499.399 358.8C499.098 358.425 498.861 358.129 498.691 357.917M466.258 551.008L466.254 551.002C465.379 551.323 464.401 550.985 463.358 549.963C462.323 548.95 461.333 547.355 460.514 545.476C458.869 541.702 457.999 536.989 458.693 533.94M458.206 533.829C459.682 527.416 485.083 478.135 485.083 478.135M458.206 533.829L458.693 533.941C458.693 533.941 458.693 533.941 458.693 533.94M458.206 533.829L458.693 533.94M485.083 478.135L475.088 466.267L429.855 412.609L430.246 412.298M485.083 478.135C485.527 478.364 485.527 478.365 485.527 478.365L485.526 478.367L485.523 478.373L485.509 478.4L485.454 478.506L485.242 478.919C485.056 479.281 484.782 479.814 484.433 480.494C483.736 481.853 482.738 483.803 481.536 486.163C479.132 490.882 475.912 497.241 472.646 503.8C469.379 510.36 466.067 517.117 463.481 522.634C462.188 525.392 461.077 527.837 460.244 529.791C459.406 531.757 458.867 533.188 458.693 533.94M485.083 478.135L485.527 478.364L485.68 478.068L485.465 477.813L475.47 465.945L475.47 465.945L430.246 412.298M430.246 412.298L429.924 411.915L498.769 357.216M430.246 412.298L498.691 357.917M498.769 357.216C498.379 357.529 498.38 357.529 498.38 357.529L498.381 357.53L498.384 357.534L498.396 357.549L498.445 357.611L498.64 357.854C498.656 357.874 498.673 357.895 498.691 357.917M498.769 357.216L499.08 357.607L498.691 357.917" fill="white" stroke="black"/>
<path d="M466.427 551.472C470.989 549.797 574.255 467.281 576.205 461.639C576.822 459.898 569.56 449.142 559.301 435.191C544.281 453.143 491.926 506.577 477.634 513.718C468.553 518.258 470.361 509.343 473.755 500.483C466.779 514.423 459.01 530.369 458.206 533.829C456.762 540.232 461.853 553.158 466.438 551.483L466.427 551.472Z" fill="#263238"/>
<path d="M359.601 306.459C364.351 342.438 453.004 446.277 463.242 458.19C464.752 459.942 465.578 460.901 465.578 460.901L538.914 404.546L538.066 403.455L473.49 318.9C473.49 318.9 580.271 381.217 633.706 352.929C657.685 340.234 675.482 317.655 675.482 317.655L605.749 280.474C605.749 280.474 586.453 286.712 574.122 284.915C531.608 278.689 436.354 242.533 413.763 243.437C384.605 244.638 355.259 273.455 359.612 306.459H359.601Z" fill="#262626"/>
<path d="M450.293 287.472C452.795 290.007 454.8 293.18 456.949 296.012C459.23 299.01 461.556 301.974 463.826 304.961C463.848 304.994 463.87 305.016 463.892 305.049C463.484 304.167 463.087 303.285 462.669 302.426C461.225 299.451 460.079 296.365 458.382 293.522C458.283 293.346 458.547 293.18 458.646 293.357C460.399 296.189 462.426 298.878 463.925 301.853C464.63 303.252 465.291 304.674 465.919 306.107C466.261 306.9 466.614 307.682 466.911 308.487C467.054 308.85 467.231 309.247 467.33 309.644C468.355 311.032 469.358 312.432 470.338 313.853C472.509 317.005 474.438 320.333 476.631 323.463C476.752 323.628 476.487 323.782 476.366 323.628C474.14 320.686 471.639 317.953 469.38 315.033C467.076 312.068 464.884 309.016 462.735 305.941C460.63 302.944 458.569 299.913 456.464 296.905C454.349 293.886 451.836 290.899 450.117 287.626C450.062 287.516 450.205 287.384 450.304 287.483L450.293 287.472Z" fill="#263238"/>
<path d="M657.046 102.208C659.393 102.472 669.597 101.128 676.562 110.307C683.151 119.002 685.829 145.703 687.295 151.51C688.76 157.318 696.419 158.078 698.326 164.811C699.968 170.607 695.758 172.811 695.394 177.087C695.108 180.404 698.513 185.319 695.571 190.267C692.893 194.763 688.044 193.892 685.146 195.336C682.248 196.779 680.54 203.556 675.162 205.463C669.795 207.369 664.936 202.521 662.071 202.587C659.206 202.664 655.944 211.502 646.577 210.885C637.21 210.256 634.389 202.388 630.499 200.89C626.609 199.391 616.967 202.234 612.46 197.474C607.964 192.724 607.093 186.289 605.066 183.941C603.038 181.605 598.872 182.046 596.316 176.591C593.748 171.147 598.806 167.577 599.445 162.806C599.897 159.478 596.9 156.48 598.895 151.378C601.638 144.369 610.179 145.725 613.319 138.529C615.777 132.876 620.67 108.412 635.315 102.175C645.431 97.8662 657.024 102.197 657.024 102.197L657.046 102.208Z" fill="#262626"/>
<path d="M686.986 150.122C687.449 151.4 688.551 152.326 689.532 153.219L692.617 155.797C694.656 157.483 696.728 159.235 698.094 161.406C699.494 163.5 699.934 166.178 699.108 168.492C698.711 169.66 697.995 170.718 697.201 171.765C696.43 172.823 695.493 173.87 694.942 175.346C694.436 176.955 694.975 178.498 695.394 179.732C695.846 181.021 696.353 182.245 696.739 183.49C697.532 185.947 697.763 188.581 696.606 190.818C696.066 191.92 695.207 192.835 694.083 193.375C692.97 193.926 691.67 194.146 690.358 194.245C689.047 194.355 687.702 194.333 686.358 194.377C685.036 194.432 683.57 194.499 682.479 195.325C683.658 194.653 685.047 194.741 686.358 194.785C687.691 194.862 689.025 194.994 690.391 194.994C691.747 194.972 693.157 194.829 694.48 194.256C695.813 193.705 696.937 192.636 697.642 191.369C699.174 188.834 698.843 185.661 698.061 183.093C697.675 181.771 697.179 180.503 696.772 179.269C696.364 178.024 696.033 176.812 696.386 175.82C697.157 173.671 699.538 171.732 700.408 168.944C701.334 166.189 700.783 162.982 699.053 160.745C697.422 158.453 695.218 156.789 693.058 155.202L689.774 152.899C688.738 152.095 687.592 151.323 686.975 150.122H686.986Z" fill="#262626"/>
<path d="M621.915 116.159C619.424 120.303 617.914 124.909 615.975 129.262C615.005 131.444 614.102 133.659 612.989 135.73C612.416 136.744 611.843 137.791 611.115 138.595C610.95 138.816 610.763 139.003 610.564 139.135C610.388 139.279 610.212 139.444 609.925 139.565C609.429 139.841 608.9 140.083 608.36 140.325C606.222 141.317 603.952 142.21 601.826 143.488C599.721 144.733 597.682 146.474 596.646 148.844C596.139 150.001 595.831 151.312 595.952 152.601C596.062 153.902 596.558 155.081 597.098 156.15C598.255 158.266 599.335 160.381 599.445 162.828C599.699 160.392 598.696 158.012 597.781 155.841C597.319 154.75 596.933 153.648 596.911 152.535C596.867 151.433 597.186 150.342 597.693 149.351C598.751 147.367 600.492 145.813 602.52 144.689C604.536 143.532 606.762 142.706 608.988 141.714C609.539 141.449 610.09 141.185 610.641 140.876C611.148 140.601 611.854 140.05 612.195 139.565C613.055 138.562 613.617 137.471 614.201 136.391C615.303 134.21 616.239 131.984 617.044 129.713L619.413 122.914C620.162 120.633 620.879 118.352 621.881 116.17L621.915 116.159Z" fill="#262626"/>
<path d="M602.773 182.354C603.82 183.721 603.975 185.506 604.393 187.148C604.779 188.823 605.165 190.498 605.639 192.173C606.101 193.848 606.696 195.501 607.512 197.088C608.338 198.653 609.418 200.195 611.005 201.286C614.311 203.325 618.179 203.016 621.529 202.355C623.237 202.014 624.89 201.584 626.565 201.286C628.229 200.956 629.926 200.757 631.601 201.231C630.047 200.427 628.185 200.449 626.466 200.548C624.736 200.702 623.028 201.011 621.342 201.198C618.036 201.606 614.487 201.716 611.854 200.019C610.575 199.182 609.595 197.837 608.79 196.416C607.953 194.994 607.369 193.407 606.752 191.82C606.156 190.234 605.65 188.592 605.11 186.961C604.823 186.145 604.526 185.33 604.195 184.536C603.831 183.765 603.512 182.883 602.773 182.377V182.354Z" fill="#262626"/>
<path d="M638.554 209.419C623.336 246.655 575.973 289.598 560.127 290.767C541.636 292.133 494.284 270.182 476.245 244.219C471.969 238.059 511.53 209.738 518.065 214.378C531.487 223.888 556.832 236.913 559.025 237.111C563.378 237.508 592.756 215.259 616.173 199.413C645.309 179.688 644.604 194.586 638.543 209.419H638.554Z" fill="white"/>
<path d="M519.448 202.222C519.695 202.042 519.898 201.889 520.049 201.774C516.867 194.772 511.738 186.641 509.769 183.678C508.724 182.104 506.954 180.933 504.821 180.07C502.694 179.21 500.255 178.677 497.934 178.351C495.616 178.025 493.434 177.908 491.83 177.873C491.029 177.855 490.373 177.858 489.919 177.865C489.692 177.869 489.515 177.874 489.395 177.877C489.336 177.879 489.29 177.881 489.26 177.882L489.226 177.883L489.218 177.884L489.216 177.884L489.216 177.884L488.41 177.92L488.736 177.182C489.974 174.381 492.157 172.08 494.665 169.495C494.773 169.383 494.882 169.271 494.991 169.159C497.435 166.642 500.2 163.796 502.863 159.879L502.863 159.879C504.835 156.98 505.425 155.064 505.27 153.895C505.196 153.339 504.954 152.948 504.588 152.67C504.21 152.381 503.667 152.188 502.969 152.11C501.567 151.953 499.688 152.272 497.728 152.943C495.777 153.61 493.795 154.608 492.197 155.761C464.71 175.603 463.053 205.544 464.103 216.855L464.103 216.855C464.852 224.964 469.333 233.429 473.671 239.903C475.835 243.132 477.952 245.85 479.528 247.76C480.316 248.715 480.968 249.468 481.422 249.981C481.577 250.156 481.71 250.304 481.816 250.421L517.774 221.884C519.089 216.409 518.876 212.045 518.336 209.051C518.063 207.539 517.707 206.375 517.421 205.593C517.278 205.202 517.153 204.907 517.065 204.712C517.02 204.615 516.986 204.542 516.962 204.495C516.951 204.472 516.942 204.455 516.936 204.444L516.931 204.433L516.93 204.432L516.93 204.431L516.93 204.431L516.93 204.431L516.705 204.012L517.113 203.767C518.062 203.197 518.874 202.638 519.448 202.222Z" fill="white" stroke="black"/>
<path d="M523.415 144.291L523.399 144.239C523.068 143.506 522.476 142.838 521.767 142.356C521.023 141.849 520.191 141.574 519.453 141.607L519.452 141.607L488.212 142.918C488.212 142.918 488.212 142.918 488.212 142.918C487.485 142.951 487.013 143.265 486.775 143.689C486.531 144.122 486.481 144.763 486.801 145.533L486.811 145.557L486.818 145.582L504.608 205.45C504.926 206.213 505.531 206.911 506.264 207.411C507.007 207.917 507.839 208.192 508.576 208.159L508.578 208.159L539.817 206.848C540.543 206.816 541.013 206.502 541.25 206.078C541.493 205.644 541.544 205.002 541.228 204.231L541.219 204.208L541.212 204.184L523.415 144.291Z" fill="#A6A5A5" stroke="black"/>
<path d="M519.701 144.413L519.685 144.36C519.354 143.627 518.763 142.959 518.053 142.477C517.309 141.971 516.477 141.696 515.739 141.728L515.738 141.728L484.498 143.04C484.498 143.04 484.498 143.04 484.498 143.04C483.772 143.072 483.299 143.386 483.061 143.81C482.817 144.243 482.767 144.884 483.087 145.654L483.097 145.678L483.104 145.704L500.894 205.571C501.212 206.334 501.817 207.032 502.55 207.532C503.293 208.038 504.125 208.313 504.863 208.28L504.864 208.28L536.104 206.969C536.829 206.937 537.299 206.623 537.537 206.199C537.779 205.765 537.83 205.123 537.514 204.352L537.505 204.329L537.498 204.305L519.701 144.413Z" fill="#C7C7C6" stroke="black"/>
<path d="M512.238 147.366C512.319 148.56 513.341 149.461 514.527 149.381C515.721 149.3 516.621 148.278 516.541 147.092C516.46 145.898 515.438 144.998 514.252 145.078C513.058 145.159 512.158 146.18 512.238 147.366Z" fill="#263238" stroke="black"/>
<path d="M466.369 200.431C466.722 200.513 467.195 200.622 467.773 200.754C469.141 201.068 471.096 201.515 473.446 202.045C478.145 203.106 484.421 204.503 490.728 205.847C497.036 207.191 503.37 208.481 508.187 209.329C510.597 209.753 512.618 210.064 514.063 210.217C514.788 210.294 515.352 210.329 515.741 210.321C515.921 210.318 516.045 210.306 516.123 210.29C517.298 208.357 519.001 206.919 520.848 205.756C522.491 204.721 524.275 203.886 525.925 203.114C526.159 203.005 526.389 202.897 526.616 202.79C528.476 201.914 530.078 201.106 531.15 200.141C531.679 199.664 532.06 199.165 532.279 198.621C532.497 198.082 532.569 197.471 532.438 196.747L532.438 196.746C531.995 194.284 530.385 193.17 528.838 192.654C528.058 192.394 527.301 192.29 526.735 192.252C526.454 192.233 526.223 192.231 526.064 192.233C525.984 192.234 525.923 192.237 525.883 192.239C525.862 192.239 525.848 192.24 525.838 192.241L525.829 192.242L525.828 192.242L525.827 192.242C525.827 192.242 525.827 192.242 525.827 192.24L525.557 191.301C525.557 191.3 525.557 191.3 525.557 191.3L525.557 191.3L525.557 191.3L525.559 191.299L525.569 191.294C525.579 191.288 525.595 191.28 525.615 191.268C525.657 191.245 525.719 191.21 525.798 191.163C525.956 191.068 526.183 190.926 526.449 190.739C526.984 190.365 527.672 189.816 528.295 189.118C529.544 187.721 530.485 185.794 529.576 183.438C528.591 180.886 525.901 180.089 523.226 179.992C521.911 179.943 520.656 180.068 519.728 180.207C519.265 180.276 518.885 180.348 518.622 180.402C518.49 180.429 518.388 180.452 518.32 180.468C518.286 180.476 518.26 180.482 518.243 180.486L518.225 180.491L518.221 180.492L518.22 180.492L518.22 180.492L518.22 180.492C518.22 180.492 518.22 180.492 518.22 180.491L517.84 179.58C517.839 179.579 517.839 179.579 517.839 179.579L517.839 179.579L517.839 179.579L517.842 179.577L517.857 179.568C517.869 179.56 517.889 179.548 517.916 179.531C517.969 179.497 518.047 179.447 518.146 179.38C518.344 179.245 518.626 179.046 518.953 178.79C519.61 178.276 520.441 177.541 521.158 176.646C521.876 175.749 522.459 174.718 522.659 173.61C522.856 172.518 522.687 171.319 521.846 170.045L466.369 200.431ZM466.369 200.431C470.053 195.374 477.376 185.819 486.057 179.947C491.099 176.544 498.937 172.241 506.119 169.731C509.713 168.474 513.108 167.68 515.891 167.653C518.681 167.626 520.738 168.368 521.846 170.045L466.369 200.431Z" fill="white" stroke="black"/>
<path d="M495.674 188.565C500.143 186.241 506.488 183.325 513.625 180.965C509.601 181.754 505.64 183.206 502.141 184.888C499.705 186.058 497.505 187.334 495.674 188.565Z" fill="#263238" stroke="black"/>
<path d="M504.762 198.141C509.042 196.345 514.632 194.292 521.021 192.516C517.011 193.187 513.03 194.469 509.507 195.934C507.795 196.645 506.197 197.398 504.762 198.141Z" fill="#263238" stroke="black"/>
<path d="M519.186 213.417C519.145 212.927 519.094 212.441 519.03 211.957C518.939 214.234 518.809 216.487 518.562 218.728C518.383 220.503 518.071 222.241 517.717 223.966L517.717 223.966L517.715 223.975C517.606 224.459 517.487 224.939 517.359 225.416C518.312 223.352 518.857 221.066 519.121 218.798C519.295 217.006 519.337 215.198 519.186 213.417Z" fill="#263238" stroke="black"/>
<path d="M618.113 247.866L589.814 215.215C589.814 215.215 613.044 195.941 629.772 188.779C646.5 181.616 648.66 192.371 641.1 208.394C633.541 224.427 618.113 247.855 618.113 247.855V247.866Z" fill="#C7C7C6"/>
<path d="M597.33 223.877L618.113 247.878C618.113 247.878 633.541 224.45 641.111 208.416C646.787 196.36 646.985 187.291 639.613 186.586L597.341 223.888L597.33 223.877Z" fill="#A6A5A5"/>
<path d="M598.134 210.466C602.939 215.127 615.59 228.185 622.642 237.795C622.686 237.85 622.477 238.048 622.422 238.004C615.303 230.951 602.179 215.843 597.826 210.763C597.749 210.664 598.046 210.388 598.134 210.466Z" fill="#263238"/>
<path d="M708.948 333.898C704.849 335.22 588.271 301.489 588.271 301.489L602.035 261.013C602.035 261.013 595.236 247.999 598.398 235.481C602.619 218.753 633.573 191.258 636.009 189.639C645.772 183.159 654.93 183.269 663.029 187.578C696.739 205.485 708.959 333.909 708.959 333.909L708.948 333.898Z" fill="#DCDBDB"/>
<path d="M653.012 188.625C653.619 187.325 654.291 186.046 655.139 184.845C655.404 184.889 655.69 184.922 655.955 184.988C655.613 186.487 655.04 187.887 654.434 189.275C653.563 191.126 652.583 192.912 651.183 194.487C651.448 192.394 652.175 190.487 653.012 188.625ZM624.416 261.807C625.309 259.978 626.279 258.193 627.689 256.617C627.403 258.711 626.697 260.617 625.882 262.479C624.989 264.331 624.031 266.116 622.609 267.692C622.895 265.576 623.601 263.669 624.416 261.807ZM675.151 212.979C677.002 213.871 678.788 214.863 680.363 216.251C678.237 215.965 676.341 215.26 674.501 214.444C672.65 213.552 670.864 212.593 669.289 211.171C671.382 211.458 673.289 212.163 675.151 212.979ZM689.741 281.676C691.593 282.546 693.378 283.538 694.976 284.949C692.86 284.64 690.931 283.935 689.091 283.119C687.24 282.249 685.455 281.268 683.879 279.846C685.995 280.133 687.901 280.838 689.741 281.676ZM612.074 293.323C613.925 294.216 615.711 295.175 617.286 296.596C615.16 296.31 613.264 295.605 611.424 294.767C609.573 293.897 607.787 292.916 606.212 291.516C608.305 291.781 610.19 292.486 612.074 293.323ZM638.169 224.56C638.863 226.489 639.425 228.461 639.524 230.566C638.268 228.88 637.408 227.04 636.659 225.122C635.987 223.194 635.425 221.243 635.304 219.139C636.582 220.825 637.431 222.687 638.169 224.56ZM659.437 293.886C660.109 295.792 660.671 297.742 660.792 299.869C659.514 298.205 658.666 296.321 657.927 294.425C657.277 292.519 656.671 290.569 656.572 288.442C657.828 290.15 658.688 291.968 659.437 293.886ZM688.584 318.162C690.513 317.49 692.485 316.928 694.568 316.807C692.882 318.107 691.019 318.933 689.146 319.672C687.218 320.366 685.267 320.928 683.14 321.071C684.848 319.771 686.689 318.922 688.584 318.173V318.162ZM663.558 250.6C665.487 249.906 667.459 249.366 669.542 249.2C667.878 250.523 665.994 251.371 664.12 252.088C662.192 252.76 660.241 253.322 658.115 253.465C659.823 252.165 661.663 251.338 663.558 250.6Z" fill="white"/>
<path d="M634.566 260.849C629.552 259.989 624.472 259.284 619.38 259.162C616.846 259.107 614.322 259.162 611.799 259.284C610.532 259.339 609.275 259.361 608.019 259.361C606.719 259.361 605.341 259.328 604.085 259.019C603.975 258.986 603.931 259.163 604.041 259.196C605.253 259.57 606.41 259.923 607.666 260.143C608.857 260.342 610.08 260.419 611.281 260.463C613.849 260.54 616.427 260.507 618.995 260.562C624.185 260.672 629.364 260.782 634.533 261.278C634.775 261.3 634.819 260.904 634.588 260.86L634.566 260.849Z" fill="#263238"/>
<path d="M645.431 268.573C641.541 267.041 637.508 265.675 633.463 264.595C631.425 264.055 629.375 263.625 627.303 263.261C626.312 263.085 625.32 262.931 624.328 262.776C623.237 262.611 622.113 262.6 621.022 262.424C620.912 262.402 620.857 262.578 620.978 262.6C622.003 262.798 622.995 263.162 624.009 263.427C625.022 263.68 626.036 263.933 627.061 264.198C629.1 264.716 631.116 265.256 633.155 265.752C637.232 266.744 641.287 267.779 645.332 268.914C645.552 268.981 645.618 268.661 645.42 268.584L645.431 268.573Z" fill="#263238"/>
<path d="M658.456 186.73C657.993 188.845 648.131 202.664 638.488 202.356C635.348 202.245 635.171 185.088 635.171 185.088L634.863 183.82L630.642 166.123L654.291 150.629C654.291 150.629 658.633 185.826 658.456 186.719V186.73Z" fill="white"/>
<path d="M630.654 166.122L634.885 183.82C639.921 181.848 650.71 176.15 655.768 162.662C655.04 156.557 654.423 151.488 654.335 150.739C654.313 150.684 654.313 150.64 654.313 150.64L651.316 152.447L630.665 166.111L630.654 166.122Z" fill="#262626"/>
<path d="M610.95 130.947C600.448 161.097 617.319 170.795 623.821 173.043C629.727 175.092 650.092 181.318 663.646 152.414C677.211 123.509 666.511 109.095 653.255 103.695C639.998 98.2957 621.452 100.786 610.95 130.936V130.947Z" fill="white"/>
<path d="M617.198 127.63C617.948 127.741 618.653 127.719 619.402 127.763C620.251 127.807 620.912 127.917 621.672 127.465C622.08 127.223 622.234 126.539 622.036 126.132C621.573 125.162 620.548 124.853 619.535 124.765C618.433 124.666 617.562 124.875 616.647 125.493C615.766 126.099 616.229 127.487 617.209 127.63H617.198Z" fill="#262626"/>
<path d="M637.375 135.895C636.67 135.62 636.075 135.234 635.414 134.892C634.665 134.496 634.025 134.264 633.607 133.482C633.386 133.063 633.585 132.402 633.97 132.148C634.863 131.553 635.899 131.807 636.824 132.237C637.827 132.71 638.477 133.328 638.951 134.33C639.414 135.3 638.301 136.259 637.375 135.895Z" fill="#262626"/>
<path d="M631.755 139.322C631.8 139.245 631.888 139.466 631.866 139.554C631.182 141.614 630.742 144.094 632.428 145.35C632.483 145.394 632.439 145.493 632.373 145.46C630.169 144.457 630.786 141.163 631.755 139.322Z" fill="#262626"/>
<path d="M634.268 137.702C637.695 138.44 635.965 145.24 632.791 144.556C629.662 143.884 631.403 137.085 634.268 137.702Z" fill="#262626"/>
<path d="M635.503 138.396C635.998 138.936 636.406 139.763 637.1 140.016C637.905 140.314 638.72 139.752 639.437 139.212C639.514 139.157 639.558 139.234 639.536 139.322C639.227 140.633 638.379 141.835 636.935 141.68C635.613 141.537 634.996 140.149 635.007 138.749C635.007 138.496 635.315 138.187 635.514 138.407L635.503 138.396Z" fill="#262626"/>
<path d="M619.733 135.509C619.733 135.421 619.546 135.564 619.524 135.652C619.072 137.779 618.191 140.137 616.108 140.369C616.042 140.369 616.02 140.479 616.097 140.49C618.51 140.732 619.645 137.592 619.733 135.509Z" fill="#262626"/>
<path d="M618.4 132.842C615.072 131.751 613.121 138.484 616.207 139.509C619.248 140.512 621.188 133.768 618.4 132.842Z" fill="#262626"/>
<path d="M616.857 132.875C616.218 133.074 615.502 133.581 614.862 133.437C614.113 133.272 613.771 132.39 613.507 131.553C613.474 131.465 613.408 131.509 613.386 131.597C612.978 132.875 613.022 134.341 614.179 134.947C615.248 135.498 616.394 134.627 617.066 133.437C617.188 133.217 617.11 132.798 616.857 132.886V132.875Z" fill="#262626"/>
<path d="M627.271 158.033C626.665 158.441 626.037 159.047 625.243 158.97C624.483 158.904 623.678 158.408 623.039 158.022C622.973 157.989 622.896 158.044 622.929 158.11C623.337 159.036 624.417 159.752 625.442 159.752C626.444 159.752 627.072 159.003 627.458 158.155C627.513 158.033 627.359 157.956 627.271 158.022V158.033Z" fill="#262626"/>
<path d="M620.251 147.587C620.251 147.587 619.061 150.639 618.708 152.127C618.675 152.27 619.017 152.413 619.523 152.568C619.546 152.579 619.557 152.59 619.579 152.579C622.113 153.615 624.978 153.339 627.083 151.565C627.226 151.444 627.072 151.245 626.907 151.311C624.604 152.292 622.345 152.138 619.997 151.631C619.997 151.19 622.201 146.463 621.97 146.397C621.176 146.132 619.435 146.308 618.399 146.364C620.692 139.928 623.986 133.911 626.168 127.476C626.245 127.244 625.926 127.09 625.805 127.288C621.904 133.349 619.105 140.699 616.57 147.278C616.251 148.094 619.579 147.708 620.24 147.598L620.251 147.587Z" fill="#262626"/>
<path d="M619.733 152.006C619.733 152.006 620.493 154.419 622.212 155.786C622.841 156.293 623.579 156.656 624.472 156.722C626.29 156.855 626.852 155.345 626.995 153.934C627.116 152.777 626.94 151.675 626.94 151.675C626.94 151.675 623.722 153.119 619.744 152.017L619.733 152.006Z" fill="#262626"/>
<path d="M622.201 155.775C622.829 156.282 623.568 156.645 624.46 156.711C626.279 156.844 626.841 155.334 626.984 153.923C625.133 153.494 622.951 154.1 622.201 155.786V155.775Z" fill="#F499BB"/>
<path d="M659.679 153.637C652.34 151.224 656.803 127.829 657.376 124.964C656.914 126.749 654.456 136.204 653.63 136.369C653.42 136.402 652.638 135.994 651.426 135.256H651.404C651.712 134.187 651.955 133.008 652.109 131.818C652.197 131.278 651.591 132.887 650.709 134.837C650.324 134.606 649.905 134.33 649.453 134.055C650.092 132.049 650.698 129.515 650.82 126.716C650.864 125.768 649.464 129.68 647.613 132.92C642.896 130.055 636.042 126.11 629.21 123.873C627.381 123.267 625.783 122.826 624.35 122.484C625.144 119.718 626.312 116.853 625.926 117.437C624.791 119.068 623.92 120.776 623.281 122.242C622.499 122.065 621.783 121.911 621.132 121.79C622.08 117.823 625.75 112.126 624.846 112.897C621.375 115.905 619.259 119.487 618.278 121.426C615.457 121.173 614.576 121.481 614.697 120.765C614.928 119.476 619.634 108.985 630.477 103.431C642.268 97.4033 661.377 100.566 667.9 117.018C667.9 117.018 674.854 125.107 673.586 134.518C672.33 143.907 663.922 155.025 659.679 153.637Z" fill="#262626"/>
<path d="M658.049 153.075C658.049 153.075 667.25 145.13 671.03 148.656C674.799 152.182 666.17 164.888 660.539 165.494C654.908 166.1 654.247 160.899 654.247 160.899L658.06 153.075H658.049Z" fill="white"/>
<path d="M668.462 152.237C668.551 152.248 668.528 152.369 668.462 152.38C664.484 152.931 661.74 155.785 659.525 158.915C660.936 157.857 662.589 157.494 664.043 159.224C664.121 159.312 663.988 159.444 663.9 159.389C662.501 158.695 661.377 158.684 660.076 159.609C659.162 160.27 658.401 161.207 657.652 162.045C657.399 162.32 656.859 162.001 657.079 161.659C657.09 161.637 657.112 161.604 657.134 161.582C658.214 156.954 663.426 151.433 668.473 152.226L668.462 152.237Z" fill="#262626"/>
<path d="M669.104 219.257L669.261 218.294L669.265 218.298C669.942 213.692 670.05 209.303 669.615 205.626C669.147 201.669 668.06 198.625 666.465 196.983C665.681 196.175 664.781 195.714 663.763 195.63C662.736 195.545 661.532 195.838 660.141 196.646C657.344 198.269 653.91 201.899 649.875 208.233L649.453 207.965L649.875 208.233C643.023 218.988 637.826 227.357 633.886 233.703C632.074 236.62 630.528 239.11 629.209 241.208C627.118 244.532 625.59 246.881 624.481 248.377C623.928 249.122 623.463 249.678 623.071 250.039C622.875 250.219 622.679 250.369 622.482 250.466C622.285 250.563 622.043 250.629 621.788 250.569L621.785 250.568C621.703 250.548 621.638 250.513 621.604 250.493C621.563 250.469 621.524 250.442 621.488 250.416C621.417 250.364 621.337 250.297 621.251 250.221C621.078 250.068 620.855 249.855 620.589 249.591C620.056 249.062 619.329 248.307 618.449 247.377C617.206 246.063 615.647 244.391 613.878 242.493C613.143 241.704 612.371 240.875 611.571 240.018C606.115 234.174 599.319 226.959 593.522 221.349L593.521 221.349C593.339 221.172 593.032 221.048 592.531 221.043C592.03 221.038 591.388 221.154 590.614 221.398C589.067 221.885 587.093 222.849 584.846 224.171C580.359 226.811 574.873 230.826 569.689 235.12C564.504 239.413 559.644 243.968 556.404 247.682C554.779 249.543 553.585 251.167 552.953 252.426C552.636 253.059 552.482 253.559 552.461 253.928C552.442 254.276 552.54 254.46 552.694 254.577C554.85 256.218 557.87 258.769 561.508 261.842C563.218 263.287 565.065 264.847 567.023 266.482C573.158 271.606 580.408 277.488 588.043 282.94C595.679 288.393 603.686 293.404 611.333 296.794C618.991 300.188 626.227 301.928 632.346 300.919L632.346 300.919C633.395 300.746 634.647 300.136 636.064 299.051C637.475 297.971 639.02 296.445 640.653 294.488C643.919 290.574 647.506 284.976 651.061 277.887C658.169 263.712 665.122 243.625 669.104 219.257Z" fill="white" stroke="black"/>
<path d="M539.43 187.118L539.681 186.18L539.681 186.179L539.681 186.179L539.679 186.179L539.672 186.175L539.644 186.16C539.62 186.146 539.582 186.125 539.534 186.098C539.436 186.043 539.293 185.962 539.111 185.857C538.747 185.646 538.23 185.339 537.62 184.954C536.399 184.182 534.812 183.102 533.337 181.863C531.854 180.618 530.519 179.241 529.764 177.883C529.014 176.534 528.877 175.293 529.601 174.188C530.763 172.419 533.283 171.749 536.788 171.973C540.253 172.196 544.482 173.283 548.779 174.776C557.375 177.761 566.096 182.312 569.249 184.548L569.249 184.548C572.066 186.545 575.078 190.005 578.022 194.115C580.96 198.215 583.804 202.925 586.292 207.388C588.779 211.85 590.907 216.057 592.414 219.15C593.167 220.696 593.764 221.963 594.173 222.843C594.377 223.282 594.535 223.626 594.641 223.859C594.645 223.867 594.648 223.875 594.652 223.883L556.948 257.932C552.187 256.004 542.802 250.435 534.727 243.698C530.611 240.263 526.858 236.543 524.238 232.869C521.609 229.182 520.176 225.618 520.556 222.471L520.556 222.471C520.823 220.236 521.822 218.384 522.768 217.082C523.24 216.433 523.694 215.926 524.029 215.582C524.197 215.411 524.334 215.281 524.428 215.194C524.475 215.151 524.511 215.119 524.535 215.098L524.561 215.075L524.567 215.071L524.567 215.07L524.568 215.07L524.568 215.07L524.832 214.849L539.43 187.118ZM539.43 187.118C539.43 187.119 539.43 187.119 539.43 187.119L539.43 187.119L539.43 187.119L539.423 187.119L539.392 187.119C539.363 187.119 539.318 187.119 539.26 187.12C539.143 187.122 538.97 187.129 538.752 187.145C538.315 187.178 537.7 187.25 536.991 187.409C535.569 187.727 533.806 188.384 532.356 189.73L532.356 189.73C530.805 191.168 530.768 193.473 531.214 195.585C531.433 196.621 531.759 197.562 532.032 198.246C532.168 198.588 532.29 198.864 532.378 199.053C532.422 199.147 532.457 199.22 532.48 199.269C532.492 199.293 532.501 199.311 532.507 199.323L532.514 199.336L532.515 199.338L532.515 199.339M539.43 187.118L532.515 199.339M532.515 199.339L532.515 199.339L532.515 199.339ZM524.719 214.523L524.719 214.523L532.16 200.059L532.16 200.059L532.159 200.059L532.152 200.061L532.119 200.067C532.089 200.073 532.044 200.083 531.984 200.096C531.865 200.123 531.688 200.166 531.466 200.227C531.021 200.35 530.396 200.548 529.681 200.848C528.247 201.449 526.478 202.448 525.074 204.041L525.073 204.042C523.701 205.598 523.558 208.142 523.825 210.438C523.955 211.565 524.18 212.589 524.372 213.333C524.468 213.704 524.556 214.004 524.619 214.21C524.65 214.313 524.676 214.392 524.693 214.446C524.698 214.46 524.702 214.472 524.705 214.482C524.708 214.491 524.711 214.499 524.713 214.505L524.718 214.519L524.719 214.523L524.719 214.523Z" fill="white" stroke="black"/>
<path d="M551.517 192.009C548.777 190.601 545.982 189.314 543.118 188.24C545.47 189.389 547.902 190.443 550.35 191.503C550.676 191.644 551.003 191.786 551.33 191.928C551.392 191.955 551.455 191.982 551.517 192.009Z" fill="#263238" stroke="black"/>
<path d="M537.395 202.582C538.213 203.097 539.032 203.614 539.849 204.135C539.046 203.579 538.239 203.029 537.425 202.485C537.164 202.311 536.905 202.136 536.647 201.961C535.618 201.264 534.606 200.579 533.537 200.071C534.387 200.753 535.345 201.333 536.32 201.923C536.677 202.139 537.037 202.357 537.395 202.582L537.395 202.582Z" fill="#263238" stroke="black"/>
<mask id="path-49-inside-1_312_7536" fill="white">
<path d="M524.401 214.786C526.021 215.259 527.498 216.648 528.831 217.651C530.341 218.786 531.862 219.91 533.393 221.034C536.446 223.271 539.498 225.497 542.628 227.624C542.782 227.734 542.628 227.976 542.474 227.877C539.278 225.728 536.06 223.634 532.887 221.453C531.333 220.384 529.779 219.315 528.236 218.224C526.925 217.298 525.173 216.295 524.28 214.929C524.225 214.852 524.313 214.753 524.401 214.775V214.786Z"/>
</mask>
<path d="M524.401 214.786C526.021 215.259 527.498 216.648 528.831 217.651C530.341 218.786 531.862 219.91 533.393 221.034C536.446 223.271 539.498 225.497 542.628 227.624C542.782 227.734 542.628 227.976 542.474 227.877C539.278 225.728 536.06 223.634 532.887 221.453C531.333 220.384 529.779 219.315 528.236 218.224C526.925 217.298 525.173 216.295 524.28 214.929C524.225 214.852 524.313 214.753 524.401 214.775V214.786Z" fill="#263238"/>
<path d="M524.401 214.786L524.121 215.745L523.401 215.535V214.786H524.401ZM528.831 217.651L528.23 218.45L528.23 218.45L528.831 217.651ZM533.393 221.034L532.802 221.84L532.802 221.84L533.393 221.034ZM542.628 227.624L543.19 226.797L543.2 226.803L543.209 226.81L542.628 227.624ZM542.474 227.877L541.933 228.718L541.924 228.713L541.916 228.707L542.474 227.877ZM532.887 221.453L532.32 222.277L532.32 222.276L532.887 221.453ZM528.236 218.224L528.813 217.407L528.814 217.407L528.236 218.224ZM524.28 214.929L525.094 214.348L525.106 214.365L525.117 214.382L524.28 214.929ZM524.401 214.775L524.644 213.804L525.401 213.994V214.775H524.401ZM524.682 213.826C525.654 214.11 526.537 214.653 527.308 215.208C527.698 215.489 528.073 215.784 528.426 216.063C528.784 216.347 529.112 216.611 529.432 216.852L528.23 218.45C527.884 218.189 527.527 217.903 527.183 217.63C526.833 217.353 526.488 217.083 526.139 216.831C525.434 216.323 524.768 215.935 524.121 215.745L524.682 213.826ZM529.432 216.851C530.938 217.983 532.455 219.105 533.985 220.228L532.802 221.84C531.268 220.715 529.744 219.588 528.23 218.45L529.432 216.851ZM533.985 220.227C537.038 222.465 540.077 224.681 543.19 226.797L542.066 228.451C538.92 226.313 535.854 224.077 532.802 221.84L533.985 220.227ZM543.209 226.81C543.811 227.24 543.767 227.954 543.516 228.357C543.39 228.559 543.179 228.757 542.882 228.85C542.557 228.951 542.213 228.898 541.933 228.718L543.014 227.036C542.812 226.906 542.544 226.86 542.287 226.94C542.058 227.011 541.905 227.16 541.817 227.301C541.729 227.442 541.67 227.635 541.699 227.854C541.731 228.095 541.862 228.306 542.047 228.437L543.209 226.81ZM541.916 228.707C538.739 226.571 535.497 224.461 532.32 222.277L533.453 220.629C536.624 222.808 539.817 224.885 543.032 227.047L541.916 228.707ZM532.32 222.276C530.767 221.208 529.208 220.136 527.659 219.04L528.814 217.407C530.35 218.494 531.899 219.559 533.453 220.629L532.32 222.276ZM527.66 219.041C527.076 218.629 526.216 218.08 525.5 217.541C524.754 216.979 523.984 216.304 523.443 215.476L525.117 214.382C525.469 214.92 526.021 215.43 526.703 215.943C527.413 216.478 528.085 216.893 528.813 217.407L527.66 219.041ZM523.466 215.51C523.119 215.024 523.268 214.478 523.516 214.178C523.746 213.899 524.167 213.685 524.644 213.804L524.159 215.745C524.548 215.842 524.88 215.667 525.058 215.451C525.253 215.215 525.386 214.757 525.094 214.348L523.466 215.51ZM525.401 214.775V214.786H523.401V214.775H525.401Z" fill="black" mask="url(#path-49-inside-1_312_7536)"/>
<path d="M523.022 231.695C522.736 231.321 522.463 230.939 522.204 230.548C522.439 230.944 522.687 231.331 522.942 231.707L522.942 231.708C525.678 235.762 529.052 239.314 532.641 242.628C536.245 245.926 540.124 248.907 544.192 251.593C547.665 253.871 551.312 255.893 555.092 257.607C551.408 255.704 547.882 253.528 544.473 251.212L544.473 251.211C540.466 248.478 536.625 245.489 533.005 242.256L533.003 242.254C529.412 239.006 525.948 235.566 523.022 231.695Z" fill="#263238" stroke="black"/>
<path d="M664.682 259.019L626.246 239.282C626.246 239.282 640.604 212.736 653.453 199.854C666.302 186.972 672.319 196.14 671.283 213.827C670.258 231.524 664.682 259.019 664.682 259.019Z" fill="#C7C7C6"/>
<path d="M633.111 231.822C639.315 234.356 655.911 241.751 666.038 248.032C666.093 248.065 665.983 248.33 665.917 248.307C656.682 244.418 638.874 235.304 632.935 232.208C632.824 232.153 633.001 231.778 633.111 231.822Z" fill="#263238"/>
<path d="M289.061 566.977L289.062 566.978C289.061 566.977 289.067 566.979 289.08 566.981C289.086 566.982 289.094 566.983 289.103 566.984C289.113 566.984 289.125 566.985 289.139 566.985C289.193 566.985 289.266 566.978 289.363 566.96C289.558 566.923 289.813 566.846 290.133 566.72C290.771 566.47 291.609 566.052 292.633 565.474C294.677 564.32 297.407 562.561 300.662 560.332C307.169 555.876 315.735 549.568 325.028 542.533C329.039 539.492 333.169 536.342 337.344 533.103L337.344 533.103C350.901 522.625 364.754 511.67 375.218 503.335C380.449 499.167 384.834 495.654 387.91 493.183C389.448 491.948 390.659 490.973 391.486 490.307C391.86 490.005 392.156 489.767 392.367 489.597L337.768 421.327L284.263 466.725L284.263 466.726L272.428 476.754L272.174 476.969L271.877 476.817L272.105 476.372C271.877 476.817 271.877 476.817 271.877 476.817L271.875 476.816L271.868 476.813L271.841 476.799L271.735 476.745L271.321 476.534C270.959 476.348 270.425 476.077 269.744 475.73C268.382 475.037 266.429 474.046 264.065 472.851C259.337 470.462 252.967 467.261 246.397 464.016C239.827 460.769 233.058 457.479 227.534 454.91C224.771 453.626 222.322 452.523 220.366 451.697C218.396 450.865 216.964 450.33 216.213 450.159C213.158 449.476 208.448 450.362 204.681 452.019C202.804 452.844 201.213 453.839 200.202 454.877C199.184 455.922 198.849 456.901 199.171 457.774C199.204 457.861 199.308 458.059 199.517 458.391C199.717 458.71 199.993 459.122 200.341 459.622C201.037 460.62 202.013 461.956 203.231 463.583C205.666 466.836 209.061 471.238 213.107 476.401C221.199 486.726 231.89 500.087 242.705 513.367C253.52 526.646 264.457 539.842 273.042 549.838C277.335 554.836 281.036 559.031 283.838 562.034C285.24 563.537 286.411 564.736 287.317 565.587C287.77 566.013 288.151 566.346 288.456 566.585C288.776 566.834 288.971 566.946 289.061 566.977Z" fill="white" stroke="black"/>
<path d="M198.702 457.947C200.399 462.509 283.257 565.521 288.899 567.45C290.761 568.111 303.004 559.626 318.487 548.077C302.685 536.584 242.671 482.51 234.616 467.876C230.373 460.173 236.566 460.239 244.137 462.355C231.773 456.272 219.342 450.343 216.323 449.671C209.92 448.227 197.016 453.385 198.691 457.947H198.702Z" fill="#263238"/>
<path d="M286.827 455.92L344.306 533.465L538.253 398.881L556.954 385.9C556.954 385.9 562.243 389.46 570.221 393.867C581.296 399.983 597.517 407.741 611.876 409.857C635.954 413.416 676.154 413.042 696.452 385.9C713.544 363.045 704.265 333.237 704.265 333.237L677.829 321.887C677.829 321.887 615.27 269.763 574.74 268.187C557.527 267.504 532.468 280.551 509.249 294.172C486.053 307.781 286.838 455.909 286.838 455.909L286.827 455.92Z" fill="#262626"/>
<path d="M556.954 385.9C556.954 385.9 562.243 389.459 570.222 393.867C584.316 376.996 614.146 346.35 615.061 345.27L556.965 385.9H556.954Z" fill="#263238"/>
<path d="M654.897 304.442C658.633 307.043 662.258 309.798 665.939 312.465C669.564 315.087 673.311 317.545 676.76 320.41C680.265 323.319 683.593 326.427 686.898 329.567C688.496 331.077 690.072 332.609 691.615 334.173C693.147 335.727 694.855 337.281 696.122 339.066C696.243 339.232 696.001 339.43 695.846 339.331C694.061 338.185 692.452 336.62 690.832 335.253C689.08 333.777 687.35 332.289 685.609 330.801C682.248 327.947 678.821 325.159 675.46 322.294C672.132 319.451 669.035 316.333 665.741 313.445C662.203 310.36 658.479 307.484 654.809 304.563C654.743 304.508 654.809 304.387 654.886 304.442H654.897Z" fill="#263238"/>
<path d="M300.326 453.132C304.062 457.154 307.511 461.496 310.993 465.738C314.487 470.003 317.958 474.289 321.396 478.587C328.294 487.194 335.237 495.767 342.014 504.473C345.739 509.255 349.408 514.071 352.868 519.052C353.023 519.272 352.67 519.525 352.494 519.327C345.077 511.172 338.3 502.478 331.424 493.872C324.537 485.254 317.66 476.615 310.905 467.887C307.203 463.115 303.39 458.366 299.996 453.374C299.863 453.176 300.172 452.955 300.337 453.121L300.326 453.132Z" fill="#263238"/>
<path d="M459.495 453.925C469.148 446.321 479.154 439.136 489.16 432.006C499.111 424.91 509.062 417.791 519.167 410.904C522.065 408.931 524.996 406.992 527.917 405.052C530.837 403.113 533.867 401.316 536.732 399.311C536.898 399.19 537.052 399.465 536.887 399.586C534.264 401.471 531.785 403.576 529.206 405.526C526.749 407.388 524.302 409.273 521.812 411.113C516.963 414.706 512.07 418.221 507.189 421.747C497.282 428.91 487.298 435.985 477.215 442.905C471.485 446.828 465.787 450.773 459.936 454.509C459.583 454.729 459.176 454.178 459.506 453.914L459.495 453.925Z" fill="#263238"/>
<path d="M397.465 373.911C406.38 366.516 415.945 359.871 425.29 353.039C434.745 346.13 444.145 339.154 453.644 332.289C463.055 325.479 472.476 318.68 481.887 311.869C491.012 305.269 500.103 298.569 509.734 292.728C515.013 289.532 520.423 286.568 525.988 283.901C531.388 281.312 537.008 278.667 542.782 277.047C542.959 277.003 543.047 277.256 542.893 277.334C538.143 279.989 533.151 282.226 528.347 284.783C523.597 287.317 518.914 289.973 514.307 292.772C504.742 298.58 495.706 305.169 486.626 311.693C467.771 325.247 448.96 338.868 429.973 352.235C419.35 359.717 408.937 367.618 397.906 374.495C397.564 374.704 397.168 374.175 397.476 373.911H397.465Z" fill="#263238"/>
<path d="M538.111 1H352.755C341.531 1 332.432 10.0987 332.432 21.3225V103.387C332.432 114.611 341.531 123.709 352.755 123.709H538.111C549.335 123.709 558.434 114.611 558.434 103.387V21.3225C558.434 10.0987 549.335 1 538.111 1Z" fill="white" stroke="black" stroke-width="2"/>
<path d="M517.819 42.0787C518.23 42.0788 518.624 41.9184 518.918 41.6318C519.212 41.3451 519.382 40.9549 519.393 40.5444C519.542 34.1398 517.174 30.3159 515.152 28.2308C512.921 25.8722 509.851 24.4871 506.607 24.3755H506.52C503.387 24.4417 500.407 25.7425 498.228 27.9948C496.166 30.0641 493.719 33.9195 493.798 40.5208C493.798 40.9382 493.964 41.3384 494.259 41.6335C494.554 41.9286 494.954 42.0944 495.371 42.0944C495.789 42.0944 496.189 41.9286 496.484 41.6335C496.779 41.3384 496.945 40.9382 496.945 40.5208C496.882 35.0131 498.818 31.8659 500.454 30.253C502.054 28.6034 504.232 27.6388 506.528 27.5621H506.583C508.979 27.669 511.238 28.7081 512.878 30.4575C515.168 32.8179 516.332 36.2956 516.23 40.5051C516.224 40.7117 516.26 40.9174 516.334 41.1103C516.409 41.3033 516.52 41.4796 516.663 41.6294C516.805 41.7792 516.976 41.8995 517.165 41.9833C517.354 42.0672 517.557 42.1129 517.764 42.118L517.819 42.0787Z" fill="#262626"/>
<path d="M483.986 102.734H528.976C530.078 102.733 531.167 102.497 532.17 102.042C533.174 101.586 534.068 100.922 534.794 100.093C535.519 99.2636 536.059 98.289 536.378 97.2341C536.696 96.1793 536.785 95.0686 536.64 93.9764L530.345 47.2085C530.097 45.3521 529.183 43.6489 527.774 42.4158C526.364 41.1827 524.554 40.5037 522.682 40.5049H491.319C489.477 40.5049 487.695 41.1628 486.294 42.36C484.893 43.5573 483.966 45.2152 483.679 47.0354L476.37 93.8112C476.196 94.9123 476.263 96.0381 476.566 97.1109C476.868 98.1838 477.4 99.1784 478.124 100.026C478.847 100.874 479.746 101.555 480.758 102.023C481.77 102.49 482.872 102.732 483.986 102.734Z" fill="#FFE18B"/>
<path d="M361.755 33.3687H447.006C450.391 33.3687 453.135 36.1128 453.135 39.4979V44.2581C453.135 47.6432 450.391 50.3873 447.006 50.3873H361.755C358.37 50.3873 355.626 47.6432 355.626 44.2581V39.4979C355.626 36.1128 358.37 33.3687 361.755 33.3687Z" fill="#FFBB45"/>
<path d="M359.694 71.9304H449.06C449.477 71.9304 449.878 71.7646 450.173 71.4695C450.468 71.1744 450.634 70.7742 450.634 70.3568C450.634 69.9395 450.468 69.5392 450.173 69.2441C449.878 68.949 449.477 68.7832 449.06 68.7832H359.694C359.277 68.7832 358.877 68.949 358.581 69.2441C358.286 69.5392 358.121 69.9395 358.121 70.3568C358.121 70.7742 358.286 71.1744 358.581 71.4695C358.877 71.7646 359.277 71.9304 359.694 71.9304Z" fill="#262626"/>
<path d="M372.275 92.1511H449.06C449.477 92.1511 449.878 91.9854 450.173 91.6902C450.468 91.3951 450.634 90.9949 450.634 90.5775C450.634 90.1602 450.468 89.7599 450.173 89.4648C449.878 89.1697 449.477 89.0039 449.06 89.0039H372.275C371.858 89.0039 371.458 89.1697 371.163 89.4648C370.867 89.7599 370.702 90.1602 370.702 90.5775C370.702 90.9949 370.867 91.3951 371.163 91.6902C371.458 91.9854 371.858 92.1511 372.275 92.1511Z" fill="#262626"/>
<path d="M304.872 190.54H151.405C137.348 190.54 125.952 201.935 125.952 215.992V383.999C125.952 398.056 137.348 409.452 151.405 409.452H304.872C318.929 409.452 330.325 398.056 330.325 383.999V215.992C330.325 201.935 318.929 190.54 304.872 190.54Z" fill="white" stroke="black" stroke-width="2"/>
<path d="M279.765 272.619H300.293C306.251 272.619 311.08 277.449 311.08 283.406V303.934C311.08 309.892 306.251 314.721 300.293 314.721H279.765C273.808 314.721 268.978 309.892 268.978 303.934V283.406C268.978 277.449 273.808 272.619 279.765 272.619Z" fill="#FFF1C9"/>
<path d="M279.765 336.531H300.293C306.251 336.531 311.08 341.361 311.08 347.318V367.846C311.08 373.804 306.251 378.633 300.293 378.633H279.765C273.808 378.633 268.978 373.804 268.978 367.846V347.318C268.978 341.361 273.808 336.531 279.765 336.531Z" fill="#FFF1C9"/>
<path d="M147.959 283.429H242.989C243.407 283.429 243.807 283.264 244.102 282.969C244.397 282.673 244.563 282.273 244.563 281.856C244.563 281.438 244.397 281.038 244.102 280.743C243.807 280.448 243.407 280.282 242.989 280.282H147.959C147.541 280.282 147.141 280.448 146.846 280.743C146.551 281.038 146.385 281.438 146.385 281.856C146.385 282.273 146.551 282.673 146.846 282.969C147.141 283.264 147.541 283.429 147.959 283.429Z" fill="#262626"/>
<path d="M184.411 306.601H242.989C243.407 306.601 243.807 306.435 244.102 306.14C244.397 305.845 244.563 305.445 244.563 305.027C244.563 304.61 244.397 304.21 244.102 303.915C243.807 303.619 243.407 303.454 242.989 303.454H184.411C183.994 303.454 183.594 303.619 183.299 303.915C183.004 304.21 182.838 304.61 182.838 305.027C182.838 305.445 183.004 305.845 183.299 306.14C183.594 306.435 183.994 306.601 184.411 306.601Z" fill="#262626"/>
<path d="M147.959 347.571H242.989C243.407 347.571 243.807 347.405 244.102 347.11C244.397 346.815 244.563 346.414 244.563 345.997C244.563 345.58 244.397 345.179 244.102 344.884C243.807 344.589 243.407 344.423 242.989 344.423H147.959C147.541 344.423 147.141 344.589 146.846 344.884C146.551 345.179 146.385 345.58 146.385 345.997C146.385 346.414 146.551 346.815 146.846 347.11C147.141 347.405 147.541 347.571 147.959 347.571Z" fill="#262626"/>
<path d="M184.411 370.742H242.989C243.407 370.742 243.807 370.576 244.102 370.281C244.397 369.986 244.563 369.586 244.563 369.168C244.563 368.751 244.397 368.351 244.102 368.056C243.807 367.76 243.407 367.595 242.989 367.595H184.411C183.994 367.595 183.594 367.76 183.299 368.056C183.004 368.351 182.838 368.751 182.838 369.168C182.838 369.586 183.004 369.986 183.299 370.281C183.594 370.576 183.994 370.742 184.411 370.742Z" fill="#262626"/>
<path d="M273.534 219.147C274.19 217.936 275.174 216.936 276.374 216.259C281.882 213.175 287.436 215.087 290.159 219.092C292.921 215.04 298.586 213.128 304.164 216.377C305.175 216.973 306.02 217.815 306.619 218.824C309.152 223.065 308.657 227.33 306.532 230.367C306.495 230.423 306.453 230.475 306.406 230.524V230.524C306.359 230.587 303.653 233.727 301.961 235.442C300.513 236.897 296.941 240.234 291.811 244.372C291.355 244.739 290.787 244.94 290.202 244.94C289.617 244.94 289.049 244.739 288.593 244.372C285.548 241.933 283.085 239.824 281.236 238.219C279.847 237.05 278.533 235.794 277.302 234.458C274.627 231.571 268.805 227.747 273.534 219.147Z" fill="#D3B970"/>
<path d="M796.02 676.283L854.411 641.029C854.428 641.011 854.428 640.993 854.392 640.994L806.959 639.445C806.941 639.446 806.941 639.446 806.941 639.464L795.984 676.266C795.984 676.284 796.02 676.301 796.02 676.283Z" fill="#F9B800"/>
<path d="M795.959 677.57L796.575 677.2L855.636 641.538L855.28 639.975L854.457 639.903L806.167 638.32L805.898 639.112L794.725 676.651L795.959 677.57ZM850.825 641.947L797.808 673.959L807.751 640.553L850.825 641.947Z" fill="#1A1432"/>
<path d="M806.959 639.463L796.001 676.248C796.002 676.266 795.966 676.267 795.966 676.249L783.615 627.549L785.986 611.144C785.986 611.144 785.986 611.126 786.004 611.126L904.873 567.404C904.891 567.404 904.909 567.421 904.891 567.44L851.816 628.517C851.816 628.517 851.816 628.517 851.798 628.518L806.959 639.463C806.959 639.445 806.959 639.445 806.959 639.463Z" fill="#F9B800"/>
<path d="M796.793 677.337L797.042 676.529L807.817 640.337L852.371 629.451L852.598 629.214L906.266 567.463L905.307 566.074L904.492 566.359L785.057 610.29L784.927 610.9L782.585 627.036L782.289 627.346L782.587 627.929L795.114 677.303L796.793 677.337ZM851.204 627.531L806.153 638.534L805.917 639.147L796.056 672.265L784.684 627.472L786.949 611.891L901.372 569.802L851.204 627.531Z" fill="#1A1432"/>
<path d="M904.908 567.422L861.607 668.793C861.607 668.811 861.589 668.811 861.571 668.812L806.977 639.481C806.959 639.481 806.959 639.463 806.976 639.445L904.872 567.422C904.89 567.386 904.926 567.403 904.908 567.422Z" fill="white"/>
<path d="M861.472 669.956L862.358 669.669L862.563 669.236L906.204 567.054L904.878 566.03L904.211 566.544L805.893 638.879L805.919 640.057L806.444 640.385L861.472 669.956ZM902.406 570.547L861.075 667.305L808.955 639.312L902.406 570.547Z" fill="#1A1432"/>
<path d="M904.784 567.425L783.614 627.514L783.596 627.515L738.954 604.268C738.936 604.25 738.936 604.232 738.954 604.232L904.765 567.389C904.801 567.389 904.82 567.424 904.784 567.425Z" fill="white"/>
<path d="M783.604 628.728L784.116 628.467L905.251 568.396L906.099 568.002L905.541 566.158L904.581 566.322L737.987 603.36L737.771 604.864L738.457 605.242L783.604 628.728ZM896.528 570.319L783.605 626.318L741.997 604.646L896.528 570.319Z" fill="#1A1432"/>
<path d="M795.544 646.519L797.464 654.372L795.384 654.881L793.463 647.027L795.544 646.519Z" fill="#1A1432"/>
<path d="M790.148 624.579L794.555 642.592L792.474 643.101L788.067 625.088L790.148 624.579Z" fill="#1A1432"/>
<path d="M799.214 620.086L802.967 634.822L800.892 635.351L797.139 620.615L799.214 620.086Z" fill="#1A1432"/>
<path d="M821.554 636.186L834.19 642.949L833.179 644.838L820.543 638.074L821.554 636.186Z" fill="#1A1432"/>
<path d="M837.807 644.937L865.582 659.803L864.571 661.691L836.796 646.826L837.807 644.937Z" fill="#1A1432"/>
<path d="M759.266 604.498L767.217 608.631L766.229 610.531L758.278 606.398L759.266 604.498Z" fill="#1A1432"/>
<path d="M770.842 610.491L793.268 622.146L792.28 624.047L769.854 612.392L770.842 610.491Z" fill="#1A1432"/>
<path d="M850.546 641.963L868.95 651.942L867.929 653.825L849.525 643.846L850.546 641.963Z" fill="#1A1432"/>
<path d="M782.144 608.343L801.247 618.109L800.272 620.016L781.169 610.25L782.144 608.343Z" fill="#1A1432"/>
<path d="M881.082 592.331L891.839 598.507L890.773 600.365L880.015 594.188L881.082 592.331Z" fill="#1A1432"/>
<path d="M884.174 601.687L889.197 604.367L888.188 606.257L883.165 603.576L884.174 601.687Z" fill="#1A1432"/>
<path d="M783.368 593.554L794.77 599.786L793.743 601.665L782.341 595.434L783.368 593.554Z" fill="#1A1432"/>
<path d="M797.023 601.03L801.752 603.616L800.725 605.495L795.996 602.909L797.023 601.03Z" fill="#1A1432"/>
<path d="M823.076 648.341L825.125 648.963L821.165 661.993L819.116 661.371L823.076 648.341Z" fill="#1A1432"/>
<path d="M816.83 648.462L818.88 649.082L817.228 654.548L815.177 653.929L816.83 648.462Z" fill="#1A1432"/>
<path d="M814.432 656.551L816.482 657.171L813.652 666.533L811.602 665.913L814.432 656.551Z" fill="#1A1432"/>
<path d="M793 685C660.333 741 351.345 887.5 247.5 816C125.5 732 201.5 625.278 241.5 607.5C295.5 583.5 365.027 596 386.5 649.5C416 723 384.381 805.171 317.5 825C218 854.5 8.99581 778.086 2.00017 576C-2.50005 446 66.9998 356.5 77.5001 345" stroke="white" stroke-width="3" stroke-dasharray="16 16"/>
</svg>
